<svg width="408" height="408" xmlns="http://www.w3.org/2000/svg">

 <g>
  <title>background</title>
  <rect fill="none" id="canvas_background" height="602" width="802" y="-1" x="-1"/>
 </g>
 <g>
  <title>Layer 1</title>
  <g id="svg_1">
   <g id="more-vert">
    <path fill="#ffffff" id="svg_2" d="m204,102c28.05,0 51,-22.95 51,-51s-22.95,-51 -51,-51s-51,22.95 -51,51s22.95,51 51,51zm0,51c-28.05,0 -51,22.95 -51,51s22.95,51 51,51s51,-22.95 51,-51s-22.95,-51 -51,-51zm0,153c-28.05,0 -51,22.95001 -51,51s22.95,51 51,51s51,-22.95001 51,-51s-22.95,-51 -51,-51z"/>
   </g>
  </g>
  <g id="svg_3"/>
  <g id="svg_4"/>
  <g id="svg_5"/>
  <g id="svg_6"/>
  <g id="svg_7"/>
  <g id="svg_8"/>
  <g id="svg_9"/>
  <g id="svg_10"/>
  <g id="svg_11"/>
  <g id="svg_12"/>
  <g id="svg_13"/>
  <g id="svg_14"/>
  <g id="svg_15"/>
  <g id="svg_16"/>
  <g id="svg_17"/>
 </g>
</svg>